<?xml version="1.0" encoding="UTF-8"?>
<svg xmlns="http://www.w3.org/2000/svg" width="258" height="40" viewBox="0 0 258 40" fill="none">
  <path fill-rule="evenodd" clip-rule="evenodd" d="M144.897 15.2048L145.867 15.6131C144.183 16.2765 142.703 16.991 141.376 17.7566L139.998 17.5525C141.274 16.8379 143.06 15.9703 144.897 15.2048ZM148.266 15.7662L139.437 11.377C138.773 11.4791 138.059 11.5812 137.446 11.6832L143.417 14.2861C143.315 14.3882 143.213 14.3882 143.06 14.4392L136.681 11.8363C135.456 12.0405 134.231 12.3467 133.21 12.6019L138.926 14.4392C138.671 14.5413 138.569 14.5923 138.314 14.7454L132.138 12.9081C130.301 13.4185 128.413 14.0309 125.912 15.0517L137.599 17.0931C137.293 17.2462 137.089 17.3993 136.732 17.5525L124.33 15.7151C121.37 16.991 117.95 18.9304 115.194 20.7167H127.392C126.83 21.074 126.371 21.3802 125.708 21.8395L112.949 22.2478C110.601 23.932 108.202 25.9225 106.824 27.1473C105.446 28.3212 101.465 32.3531 99.6279 35.9767L114.531 32.0979C113.867 33.0676 113.306 34.1394 113 35.058L129.178 29.9033C129.025 26.1266 132.7 22.7582 135.149 20.7167H137.191C134.027 23.4217 132.547 26.4328 132.955 28.7295L138.008 27.1473C136.834 23.9831 140.151 18.4201 148.266 15.7662Z" fill="#D83F13"></path>
  <path fill-rule="evenodd" clip-rule="evenodd" d="M171.436 5.27592V14.5646H173.886C174.958 14.5646 175.826 14.2073 176.489 13.4928C177.102 12.7783 177.408 11.8596 177.408 10.7368V9.10367C177.408 7.98086 177.102 7.0622 176.489 6.34769C175.877 5.63317 175.009 5.27592 173.886 5.27592H171.436ZM173.835 4C175.366 4 176.591 4.45933 177.561 5.42903C178.531 6.39872 178.99 7.6236 178.99 9.10367V10.7368C178.99 12.2169 178.531 13.4418 177.561 14.4115C176.642 15.3301 175.366 15.8405 173.835 15.8405H168.527V14.8198L169.854 14.6156V5.27592L168.527 5.02073V4H169.854H173.835Z" fill="white"></path>
  <path fill-rule="evenodd" clip-rule="evenodd" d="M183.124 5.04844L181.95 5.20155L183.481 11.7342L183.686 13.1633L183.737 13.2143L184.043 11.7342L186.237 4.02771H187.615L189.81 11.7342L190.116 13.2143H190.167L190.422 11.7342L191.902 5.20155L190.678 5.04844V4.02771H194.403V5.04844L193.485 5.15052L190.933 15.7661H189.504L187.156 7.60028L186.952 6.57954H186.901L186.697 7.60028L184.349 15.7661H182.92L180.368 5.15052L179.398 5.04844V4.02771H183.124V5.04844Z" fill="white"></path>
  <path fill-rule="evenodd" clip-rule="evenodd" d="M159.8 9.79486V5.25259H162.301C162.964 5.25259 163.475 5.4057 163.883 5.71192C163.985 5.76296 164.036 5.81399 164.138 5.91607C164.445 6.22229 164.598 6.57954 164.7 7.03887C164.751 7.19198 164.751 7.39613 164.751 7.54924C164.751 8.21272 164.547 8.72309 164.138 9.18242C163.781 9.53967 163.271 9.74382 162.607 9.79486C162.505 9.79486 162.454 9.79486 162.352 9.79486H159.8ZM166.435 14.5923L163.526 10.9687C164.24 10.8156 164.802 10.5604 165.261 10.1011C165.976 9.4376 166.333 8.62101 166.333 7.54924C166.333 6.83473 166.18 6.17125 165.823 5.66088C165.669 5.4057 165.516 5.20155 165.312 4.99741C164.853 4.53808 164.24 4.28289 163.526 4.12978C163.169 4.07875 162.811 4.02771 162.403 4.02771H161.229H156.993V5.04844L158.32 5.25259V14.5413L156.993 14.7454V15.7661H161.229V14.7454L159.902 14.5413V11.0708H161.74L164.649 14.6944L163.73 14.7965V15.8172H167.507V14.7965L166.435 14.5923Z" fill="white"></path>
  <path d="M229.558 1.87181C225.974 3.54175 222.965 6.23702 220.912 9.61682C218.86 12.9966 217.856 16.9091 218.027 20.8597C218.198 24.8102 219.536 28.6214 221.873 31.8112C224.21 35.001 227.44 37.4262 231.155 38.7803C234.871 40.1343 238.904 40.3562 242.745 39.4181C246.586 38.4799 250.063 36.4238 252.736 33.5097C255.409 30.5956 257.158 26.9544 257.761 23.0464C258.365 19.1385 257.796 15.1394 256.126 11.5548C255.018 9.17394 253.452 7.03477 251.517 5.2595C249.582 3.48423 247.316 2.10765 244.848 1.20843C242.381 0.309209 239.761 -0.0950383 237.137 0.0187871C234.514 0.132613 231.938 0.76228 229.558 1.87181ZM243.578 31.9733C241.209 33.0763 238.567 33.4521 235.984 33.0533C233.402 32.6545 230.996 31.4989 229.07 29.7327C227.145 27.9665 225.786 25.669 225.166 23.1307C224.546 20.5924 224.693 17.9273 225.588 15.4724C226.483 13.0174 228.085 10.8829 230.193 9.3387C232.301 7.7945 234.819 6.90996 237.429 6.79693C240.04 6.6839 242.625 7.34745 244.859 8.70369C247.092 10.0599 248.873 12.0479 249.976 14.4164C250.709 15.9893 251.125 17.6912 251.2 19.4248C251.275 21.1585 251.008 22.8899 250.414 24.5203C249.82 26.1507 248.91 27.648 247.737 28.9268C246.564 30.2056 245.151 31.2409 243.578 31.9733Z" fill="#001E50"></path>
  <path d="M225.489 30.1975C224.466 28.9425 223.639 27.5405 223.035 26.0388L223.58 25.8192C224.161 27.2693 224.958 28.6232 225.944 29.8349L225.489 30.1975Z" fill="white"></path>
  <path d="M253.878 16.9754C253.581 15.4126 253.053 13.9028 252.312 12.4955L252.832 12.222C253.6 13.6808 254.147 15.2458 254.454 16.8656L253.878 16.9754Z" fill="white"></path>
  <path d="M223.777 22.4934L219.976 24.5925L219.844 23.6186L222.765 22.0852L219.537 21.3973L219.402 20.4276L223.629 21.4222L223.777 22.4934Z" fill="white"></path>
  <path d="M221.423 19.4537C220.877 19.3543 220.392 19.0446 220.072 18.5912C219.752 18.1378 219.623 17.577 219.712 17.0293C219.802 16.4816 220.102 15.9909 220.55 15.6627C220.997 15.3344 221.556 15.195 222.105 15.2742C222.651 15.3736 223.136 15.6833 223.456 16.1367C223.776 16.5901 223.905 17.1509 223.816 17.6986C223.726 18.2463 223.426 18.737 222.978 19.0653C222.531 19.3935 221.972 19.5329 221.423 19.4537ZM221.962 16.159C221.212 16.0368 220.571 16.418 220.451 17.1557C220.331 17.8934 220.816 18.4632 221.564 18.5855C222.312 18.7077 222.954 18.3264 223.077 17.5826C223.199 16.8387 222.704 16.2709 221.962 16.159Z" fill="white"></path>
  <path d="M224.406 15.0194L220.73 13.3202L221.095 12.5308L224.083 13.9128L224.802 12.3588L225.49 12.6779L224.406 15.0194Z" fill="white"></path>
  <path d="M227.361 10.2079L225.325 10.1333L225.422 10.6203L226.388 11.4056L225.845 12.0749L222.699 9.52828L223.244 8.85899L224.645 9.99657L224.148 7.74626L224.819 6.91742L225.279 9.36665L228.033 9.38945L227.361 10.2079Z" fill="white"></path>
  <path d="M227.872 8.80097V7.97213C228.108 8.01703 228.352 8.01356 228.587 7.96192C228.823 7.91029 229.045 7.81156 229.241 7.67167C229.631 7.39194 229.691 7.08733 229.552 6.89463C229.138 6.32273 227.532 8.07987 226.651 6.84075C226.26 6.29164 226.409 5.49803 227.184 4.9427C227.638 4.59592 228.207 4.43447 228.775 4.49098V5.29289C228.343 5.24575 227.909 5.36179 227.559 5.61821C227.262 5.82542 227.186 6.07822 227.327 6.27714C227.698 6.79517 229.339 5.08982 230.228 6.32065C230.659 6.92364 230.549 7.68825 229.666 8.32024C229.416 8.51866 229.127 8.66368 228.819 8.74636C228.51 8.82904 228.188 8.84762 227.872 8.80097Z" fill="white"></path>
  <path d="M234.341 6.02225L232.822 3.58545L232.992 6.4491L232.117 6.72676L229.788 3.21454L230.708 2.92237L232.27 5.50007L232.121 2.48308L232.764 2.27587L234.37 4.83078L234.162 1.82623L235.082 1.53406L235.207 5.74458L234.341 6.02225Z" fill="white"></path>
  <path d="M239.278 5.59128L239.031 4.90126L237.295 4.88261L237.032 5.56641L236.054 5.55398L237.662 1.51129L238.741 1.52372L240.256 5.59128H239.278ZM238.192 2.37951L237.539 4.11593L238.803 4.13044L238.192 2.37951Z" fill="white"></path>
  <path d="M240.878 3.68076C241.249 2.45407 242.416 1.95677 243.555 2.30281C243.877 2.39002 244.17 2.56099 244.405 2.7983C244.639 3.03562 244.807 3.33081 244.89 3.65382L244.098 3.81959C244.045 3.63629 243.947 3.46894 243.814 3.33234C243.681 3.19573 243.516 3.09407 243.334 3.03634C243.169 2.98389 242.996 2.96573 242.824 2.98298C242.652 3.00023 242.486 3.05251 242.335 3.13661C242.185 3.2207 242.053 3.33481 241.948 3.47189C241.843 3.60897 241.767 3.76609 241.726 3.93356C241.667 4.09557 241.641 4.26798 241.651 4.44015C241.662 4.61232 241.707 4.78059 241.784 4.93457C241.862 5.08856 241.971 5.22498 242.103 5.33543C242.235 5.44588 242.389 5.52801 242.555 5.57674C242.854 5.66858 243.176 5.6517 243.464 5.52908L243.605 5.06493L242.588 4.7624L242.807 4.04131L244.656 4.60285L244.204 6.09063C243.928 6.26165 243.619 6.37062 243.297 6.40998C242.975 6.44934 242.648 6.41815 242.339 6.31856C241.208 5.96837 240.507 4.90123 240.878 3.68076Z" fill="white"></path>
  <path d="M244.655 7.12464L246.843 3.72638L249.255 5.27632L248.841 5.91453L247.154 4.83081L246.696 5.54776L248.354 6.60661L247.94 7.24482L246.282 6.18597L245.783 6.96301L247.469 8.04466L247.055 8.68286L244.655 7.12464Z" fill="white"></path>
  <path d="M249.495 11.2212L250.21 8.02804L248.223 9.76861L247.655 9.11382L250.701 6.44495L251.286 7.11217L250.608 10.2017L252.523 8.52534L253.09 9.17391L250.042 11.8469L249.495 11.2212Z" fill="white"></path>
  <path d="M238 31.6045C244.41 31.6045 249.608 26.4075 249.608 19.9966C249.608 13.5857 244.41 8.38861 238 8.38861C231.589 8.38861 226.392 13.5857 226.392 19.9966C226.392 26.4075 231.589 31.6045 238 31.6045Z" fill="#001E50"></path>
  <path d="M241.972 28.5233C239.71 29.5632 237.13 29.6676 234.792 28.8138C232.454 27.9599 230.548 26.2171 229.489 23.9646C229.012 22.943 228.725 21.8425 228.644 20.7176L238.285 28.4114C238.335 28.4694 238.402 28.5106 238.476 28.5295C238.55 28.5484 238.628 28.5441 238.7 28.5171C238.766 28.4791 238.819 28.422 238.853 28.3532C238.886 28.2844 238.898 28.2072 238.886 28.1316L238.789 21.9381C238.789 21.8718 238.789 21.7972 238.849 21.7723C238.909 21.7475 238.951 21.7931 239.015 21.8324L243.694 25.8979C243.74 25.9612 243.806 26.0065 243.882 26.026C243.958 26.0456 244.038 26.0382 244.109 26.0052C244.18 25.9722 244.237 25.9155 244.271 25.8449C244.305 25.7743 244.313 25.6942 244.295 25.6182L244.61 13.2891C245.417 14.0734 246.073 14.9999 246.545 16.0222C248.687 20.7176 246.648 26.3455 241.972 28.5233ZM237.098 18.0612C237.042 18.0881 236.997 18.0405 236.932 18.0011L231.468 13.2332C232.96 11.7449 234.928 10.8281 237.028 10.643L237.16 17.8954C237.156 17.9887 237.154 18.0363 237.098 18.0612ZM237.254 25.5104C237.196 25.5353 237.152 25.4876 237.088 25.4503L228.708 18.7471C228.921 17.194 229.513 15.7173 230.432 14.4474L236.777 19.9261C236.814 19.9658 236.864 19.9917 236.917 19.9996C236.971 20.0075 237.026 19.9969 237.073 19.9696L238.576 19.2672C238.631 19.2505 238.679 19.2148 238.711 19.1662C238.743 19.1177 238.756 19.0595 238.75 19.0019L238.64 10.6182C240.202 10.7398 241.711 11.2374 243.039 12.0686L242.743 22.8146C242.743 22.8788 242.743 22.9534 242.68 22.9804C242.618 23.0073 242.581 22.9576 242.517 22.9182L239.15 19.9634C239.11 19.9207 239.057 19.8936 238.999 19.8867C238.941 19.8799 238.883 19.8939 238.835 19.9261L237.332 20.6265C237.276 20.6428 237.228 20.6784 237.196 20.727C237.164 20.7756 237.151 20.834 237.158 20.8917L237.314 25.3447C237.32 25.4089 237.309 25.4835 237.254 25.5104ZM242.374 29.3873C244.231 28.522 245.79 27.1253 246.854 25.3738C247.917 23.6224 248.438 21.5949 248.349 19.5477C248.26 17.5006 247.567 15.5257 246.356 13.8728C245.145 12.2199 243.471 10.9632 241.545 10.2616C239.62 9.56009 237.53 9.44519 235.54 9.93148C233.549 10.4178 231.747 11.4834 230.362 12.9936C228.977 14.5038 228.071 16.3908 227.759 18.4159C227.446 20.441 227.741 22.5133 228.607 24.3708C229.179 25.6064 229.989 26.7168 230.991 27.6383C231.994 28.5597 233.168 29.274 234.448 29.7402C235.727 30.2063 237.086 30.4151 238.446 30.3546C239.806 30.294 241.141 29.9653 242.374 29.3873Z" fill="white"></path>
  <path d="M226.273 33.6372L227.048 33.3575C227.083 33.5958 227.166 33.8246 227.292 34.0301C227.418 34.2355 227.584 34.4134 227.78 34.5531C228.171 34.8308 228.478 34.7873 228.609 34.5946C229.023 34.0185 226.829 33.0716 227.709 31.8283C228.099 31.2771 228.899 31.159 229.676 31.7102C230.162 32.0274 230.508 32.5203 230.639 33.0861L229.875 33.3347C229.777 32.9137 229.526 32.5443 229.17 32.2987C228.872 32.0914 228.613 32.0914 228.472 32.2987C228.103 32.8188 230.252 33.8113 229.377 35.0463C228.949 35.6513 228.19 35.7984 227.305 35.1706C227.038 34.9984 226.809 34.7737 226.632 34.51C226.454 34.2464 226.332 33.9495 226.273 33.6372Z" fill="white"></path>
  <path d="M230.226 36.8283L231.62 33.0239L233.4 33.6766C234.229 33.9792 234.471 34.7127 234.229 35.3696C233.986 36.0264 233.325 36.4222 232.505 36.1217L231.535 35.7674L231.038 37.1246L230.226 36.8283ZM233.4 35.067C233.427 34.9952 233.438 34.9187 233.433 34.8423C233.428 34.7659 233.407 34.6914 233.372 34.6235C233.337 34.5556 233.288 34.4958 233.228 34.448C233.168 34.4002 233.099 34.3655 233.025 34.3459L232.169 34.033L231.794 35.0546L232.65 35.3675C232.718 35.4002 232.792 35.4183 232.868 35.4207C232.944 35.4232 233.019 35.4098 233.089 35.3816C233.159 35.3533 233.223 35.3107 233.276 35.2566C233.328 35.2024 233.369 35.1379 233.396 35.067H233.4Z" fill="white"></path>
  <path d="M234.933 38.2684L235.306 34.234L238.159 34.4992L238.099 35.2535L236.103 35.0691L236.025 35.9166L237.979 36.0968L237.892 36.8532L235.946 36.6729L235.861 37.5908L237.856 37.7752L237.786 38.5378L234.933 38.2684Z" fill="white"></path>
  <path d="M239.082 36.5216C238.86 35.2908 239.637 34.292 240.839 34.0765C241.178 34.0049 241.53 34.0303 241.855 34.1498C242.18 34.2693 242.465 34.478 242.677 34.752L242.012 35.241C241.892 35.0857 241.732 34.9653 241.55 34.8924C241.368 34.8196 241.17 34.7968 240.976 34.8266C240.643 34.9045 240.354 35.1069 240.166 35.3921C239.979 35.6772 239.908 36.0235 239.968 36.3593C240.029 36.6952 240.216 36.9951 240.49 37.1972C240.765 37.3994 241.107 37.4883 241.446 37.4458C241.638 37.4068 241.817 37.3168 241.963 37.1852C242.109 37.0536 242.216 36.8852 242.275 36.6977L243.073 36.9215C242.968 37.2519 242.774 37.5467 242.512 37.7729C242.249 37.9991 241.929 38.1477 241.587 38.2021C240.379 38.4176 239.303 37.7483 239.082 36.5216Z" fill="white"></path>
  <path d="M244.682 37.2323L243.128 33.4901L243.926 33.1586L245.478 36.9008L244.682 37.2323Z" fill="white"></path>
  <path d="M249.466 34.5283L248.863 34.1138L247.44 35.1064L247.622 35.815L246.82 36.3724L245.784 32.1578L246.671 31.5361L250.268 33.9791L249.466 34.5283ZM246.721 32.5535L247.199 34.3459L248.235 33.6227L246.721 32.5535Z" fill="white"></path>
  <path d="M251.286 32.8913L248.205 30.2618L248.769 29.6008L251.274 31.7392L252.385 30.4358L252.963 30.929L251.286 32.8913Z" fill="white"></path>
  <path d="M253.795 29.5987L250.285 27.5743L250.716 26.8283L254.226 28.8507L253.795 29.5987Z" fill="white"></path>
  <path d="M254.431 27.3173L253.944 26.6542C254.161 26.5533 254.356 26.4094 254.516 26.2314C254.676 26.0534 254.799 25.8448 254.877 25.6182C255.03 25.1644 254.899 24.8826 254.669 24.808C254 24.5842 253.725 26.9506 252.28 26.4657C251.64 26.2585 251.296 25.5208 251.601 24.6174C251.764 24.0615 252.135 23.5898 252.637 23.2995L253.095 23.9584C252.718 24.1734 252.435 24.5215 252.301 24.9344C252.185 25.2804 252.268 25.527 252.508 25.6037C253.113 25.8109 253.445 23.4653 254.879 23.946C255.581 24.1801 255.94 24.866 255.596 25.8959C255.508 26.1992 255.359 26.4815 255.159 26.7258C254.959 26.9701 254.711 27.1714 254.431 27.3173Z" fill="white"></path>
  <path d="M256.393 21.7993L253.109 21.5465L253.022 22.7276L252.264 22.6717L252.504 19.4495L253.262 19.5055L253.173 20.6804L256.458 20.9249L256.393 21.7993Z" fill="white"></path>
  <path d="M80 4H0V37H80V4Z" fill="white"></path>
  <path d="M77.5002 6.51678H30.2764V34.4876H77.5002V6.51678Z" fill="#FFD520"></path>
  <path d="M34.585 11.766H38.234C40.3011 11.766 41.2494 13.042 41.2494 14.8988V17.6664C41.2276 19.1844 40.3492 19.6508 38.8633 19.994V20.0424C40.4934 20.3636 41.3194 20.8036 41.3194 22.7616V25.5292C41.3194 27.6104 40.371 29.2032 38.2078 29.2032H34.585V11.766ZM37.1634 18.9908H37.7489C38.4045 18.9908 38.6711 18.696 38.6711 17.6928V15.0484C38.6711 14.0452 38.4045 13.7504 37.7489 13.7504H37.1634V18.9908ZM37.1634 27.122H37.6747C38.4045 27.122 38.7453 26.8272 38.7453 25.7492V22.4448C38.7453 21.3668 38.4045 21.072 37.6747 21.072H37.1634V27.122Z" fill="#231F20"></path>
  <path d="M42.6836 14.362C42.6836 12.0872 44.4579 11.4228 46.0399 11.4228C47.6219 11.4228 49.4224 12.0828 49.4224 14.362V26.6072C49.4224 28.882 47.6481 29.5464 46.0399 29.5464C44.4317 29.5464 42.6836 28.8864 42.6836 26.6072V14.362ZM45.262 26.3872C45.262 27.2672 45.5286 27.4652 46.0661 27.4652C46.6036 27.4652 46.844 27.2716 46.844 26.3872V14.5776C46.844 13.6932 46.5774 13.4996 46.0661 13.4996C45.5548 13.4996 45.262 13.6932 45.262 14.5776V26.3828V26.3872Z" fill="#231F20"></path>
  <path d="M52.7781 11.766L53.5778 19.0392C53.7701 20.7508 53.9668 24.1564 54.1634 25.8988H54.2115C54.3557 23.7912 54.5524 21.71 54.7228 19.6288L55.5007 11.766H58.0791L56.0338 29.2076H52.14L50.1953 11.766H52.7737H52.7781Z" fill="#231F20"></path>
  <path d="M59.9802 11.766H63.8478L65.8143 29.2032H63.2141L62.729 24.4776H60.9023L60.3429 29.2032H58.0049L59.9758 11.766H59.9802ZM62.4843 22.1984L61.9468 14.9472H61.7763L61.1427 22.1984H62.4843Z" fill="#231F20"></path>
  <path d="M73.3833 18.1328V14.3576C73.3833 12.0828 71.609 11.4184 70.0008 11.4184C68.3926 11.4184 66.6445 12.0784 66.6445 14.3576V26.6072C66.6445 28.882 68.4188 29.5464 70.0008 29.5464C71.5828 29.5464 73.3833 28.8864 73.3833 26.6072V20.5132H70.0664V22.6032H70.8049V26.3916C70.8049 27.2716 70.5383 27.4696 70.027 27.4696C69.4895 27.4696 69.2229 27.276 69.2229 26.3916V14.582C69.2229 13.6976 69.4895 13.504 70.027 13.504C70.5646 13.504 70.8049 13.6976 70.8049 14.582V18.1328H73.3833Z" fill="#231F20"></path>
  <path d="M17.481 23.8176C17.1357 23.932 16.7686 23.998 16.384 23.998C14.4655 23.998 12.9141 22.4316 12.9141 20.5C12.9141 18.5684 14.4699 17.0064 16.384 17.0064C18.2982 17.0064 19.8583 18.5728 19.8583 20.5C19.8583 20.808 19.8146 21.1072 19.7403 21.3888L25.4128 26.6424C26.5927 24.8912 27.2788 22.7748 27.2788 20.5C27.2788 14.4412 22.4017 9.53082 16.384 9.53082C10.3663 9.53082 5.48926 14.4456 5.48926 20.5044C5.48926 26.5632 10.3663 31.4736 16.384 31.4736C18.9493 31.4736 21.3048 30.5804 23.1665 29.0888L17.481 23.822V23.8176Z" fill="#231F20"></path>
  <path d="M20.9022 6.51679C25.3379 7.96439 28.8384 11.4932 30.2805 15.9592V6.51679H20.9022ZM2.49949 15.9548C3.93727 11.4888 7.44213 7.96439 11.8735 6.51239H2.49949V15.9548ZM2.49949 25.0452V34.4876H11.8735C7.44213 33.04 3.93727 29.5112 2.49512 25.0452M20.8978 34.4832H30.2762V25.0408C28.8384 29.5024 25.3335 33.0312 20.8978 34.4832Z" fill="#231F20"></path>
  <path d="M17.4811 23.8176C17.1358 23.932 16.7687 23.998 16.3841 23.998C14.4657 23.998 12.9142 22.4316 12.9142 20.5C12.9142 18.5684 14.47 17.0064 16.3841 17.0064C18.2983 17.0064 19.8584 18.5728 19.8584 20.5C19.8584 20.808 19.8147 21.1072 19.7404 21.3888L23.3764 24.7592C24.1237 23.5184 24.5563 22.062 24.5563 20.5C24.5563 15.9548 20.8985 12.272 16.3885 12.272C11.8785 12.272 8.2207 15.9548 8.2207 20.5C8.2207 25.0452 11.8785 28.728 16.3885 28.728C18.1584 28.728 19.7972 28.1604 21.1345 27.1968L17.4854 23.8176H17.4811Z" fill="#ED1C24"></path>
  <path d="M14.5967 20.5C14.5967 19.5056 15.4008 18.7004 16.3884 18.696C17.3761 18.696 18.1802 19.5012 18.1802 20.5C18.1802 21.4988 17.3761 22.304 16.3884 22.304C15.4008 22.304 14.5967 21.4944 14.5967 20.5ZM15.3396 20.5C15.3396 21.0808 15.8072 21.556 16.3884 21.556C16.9697 21.556 17.4373 21.0852 17.4373 20.5C17.4373 19.9148 16.9697 19.444 16.3884 19.444C15.8072 19.444 15.3396 19.9148 15.3396 20.5Z" fill="#231F20"></path>
</svg>
